<svg xmlns="http://www.w3.org/2000/svg" viewBox="0 0 52.6 46.5" enable-background="new 0 0 52.6 46.5" width="53" height="47"><style type="text/css">.st0{fill:#FFFFFF;}</style><path class="st0" d="M49.9 0h-47.3c-1.4 0-2.6 1.2-2.6 2.6v34.2c0 1.4 1.2 2.6 2.6 2.6h18.7l-4.9 7.1h19.7l-4.9-7.1h18.7c1.4 0 2.6-1.2 2.6-2.6v-34.2c.1-1.4-1.1-2.6-2.6-2.6zm-15.8 45.5h-15.7l4.2-6h7.3l4.2 6zm17.4-8.7c0 .9-.7 1.6-1.6 1.6h-47.3c-.9 0-1.6-.7-1.6-1.6v-34.2c0-.9.7-1.6 1.6-1.6h47.3c.9 0 1.6.7 1.6 1.6v34.2zM3.9 35.5h44.7v-31.6h-44.7v31.6zm1.1-30.5h42.6v29.4h-42.6v-29.4z"/></svg>