<svg xmlns="http://www.w3.org/2000/svg" viewBox="0 0 52 54" enable-background="new 0 0 52 54" width="52" height="54"><style type="text/css">.st0{fill:#FFFFFF;}</style><path class="st0" d="M25.3 41.7c.2.2.5.3.7.3.3 0 .6-.1.7-.3.3-.4 8.5-9.7 13-20 1-2.1 1.5-4.3 1.5-6.5 0-8.4-6.8-15.2-15.3-15.2-8.4 0-15.3 6.8-15.3 15.2 0 2.3.5 4.5 1.5 6.5 4.5 10.3 12.8 19.6 13.2 20zm.6-39.7c7.3 0 13.3 5.9 13.3 13.2 0 2-.4 3.8-1.3 5.7-3.6 8.2-9.8 16.1-11.9 18.6-2.2-2.6-8.4-10.4-12-18.7-.8-1.8-1.3-3.7-1.3-5.6 0-7.3 5.9-13.2 13.2-13.2zM25.9 22.2c4 0 7.2-3.2 7.2-7.2s-3.2-7.2-7.2-7.2-7.2 3.2-7.2 7.2 3.3 7.2 7.2 7.2zm0-12.4c2.9 0 5.2 2.3 5.2 5.2s-2.3 5.2-5.2 5.2-5.2-2.3-5.2-5.2 2.4-5.2 5.2-5.2zM52 52.7l-6-23c-.1-.3-.3-.6-.6-.7l-5-2-.7 1.9 4.5 1.8 5.3 20.4-10-5c-.3-.1-.6-.1-.9 0l-12.6 5.8-12.6-5.8c-.3-.1-.6-.1-.9 0l-10 5 5.3-20.4 4.5-1.8-.7-1.9-5 2c-.3.1-.5.4-.6.7l-6 23c-.1.4 0 .8.3 1 .3.2.7.3 1.1.1l11.6-5.7 12.6 5.8c.3.1.6.1.8 0l12.6-5.8 11.6 5.8c.1.1.2.1.4.1s.4-.1.6-.2c.3-.3.5-.7.4-1.1z"/></svg>