<?xml version="1.0" encoding="UTF-8" standalone="no"?><!DOCTYPE svg PUBLIC "-//W3C//DTD SVG 1.1//EN" "http://www.w3.org/Graphics/SVG/1.1/DTD/svg11.dtd"><svg width="100%" height="100%" viewBox="0 0 30 30" version="1.1" xmlns="http://www.w3.org/2000/svg" xmlns:xlink="http://www.w3.org/1999/xlink" xml:space="preserve" xmlns:serif="http://www.serif.com/" style="fill-rule:evenodd;clip-rule:evenodd;stroke-linejoin:round;stroke-miterlimit:1.41421;"><g><path d="M14.995,0.009c-4.072,0 -4.583,0.018 -6.182,0.091c-1.596,0.073 -2.686,0.326 -3.64,0.697c-0.986,0.383 -1.823,0.896 -2.656,1.729c-0.834,0.834 -1.347,1.67 -1.73,2.656c-0.371,0.954 -0.624,2.044 -0.697,3.64c-0.073,1.6 -0.09,2.11 -0.09,6.183c0,4.072 0.017,4.583 0.09,6.182c0.073,1.596 0.326,2.686 0.697,3.64c0.383,0.986 0.896,1.823 1.73,2.656c0.833,0.834 1.67,1.347 2.656,1.73c0.954,0.37 2.044,0.624 3.64,0.697c1.599,0.073 2.11,0.09 6.182,0.09c4.073,0 4.583,-0.017 6.183,-0.09c1.596,-0.073 2.686,-0.327 3.64,-0.697c0.986,-0.383 1.822,-0.896 2.656,-1.73c0.833,-0.833 1.346,-1.67 1.729,-2.656c0.371,-0.954 0.624,-2.044 0.697,-3.64c0.073,-1.599 0.091,-2.11 0.091,-6.182c0,-4.073 -0.018,-4.583 -0.091,-6.183c-0.073,-1.596 -0.326,-2.686 -0.697,-3.64c-0.383,-0.986 -0.896,-1.822 -1.729,-2.656c-0.834,-0.833 -1.67,-1.346 -2.656,-1.729c-0.954,-0.371 -2.044,-0.624 -3.64,-0.697c-1.6,-0.073 -2.11,-0.091 -6.183,-0.091Zm0,2.702c4.004,0 4.478,0.016 6.06,0.088c1.462,0.066 2.256,0.311 2.784,0.516c0.7,0.272 1.2,0.597 1.724,1.122c0.525,0.524 0.85,1.024 1.122,1.724c0.205,0.528 0.45,1.322 0.516,2.784c0.072,1.582 0.088,2.056 0.088,6.06c0,4.004 -0.016,4.478 -0.088,6.059c-0.066,1.462 -0.311,2.256 -0.516,2.785c-0.272,0.699 -0.597,1.199 -1.122,1.724c-0.524,0.524 -1.024,0.849 -1.724,1.121c-0.528,0.206 -1.322,0.45 -2.784,0.517c-1.581,0.072 -2.056,0.087 -6.06,0.087c-4.004,0 -4.478,-0.015 -6.059,-0.087c-1.462,-0.067 -2.256,-0.311 -2.785,-0.517c-0.699,-0.272 -1.199,-0.597 -1.724,-1.121c-0.524,-0.525 -0.849,-1.025 -1.121,-1.724c-0.206,-0.529 -0.45,-1.323 -0.517,-2.785c-0.072,-1.581 -0.087,-2.055 -0.087,-6.059c0,-4.004 0.015,-4.478 0.087,-6.06c0.067,-1.462 0.311,-2.256 0.517,-2.784c0.272,-0.7 0.597,-1.2 1.121,-1.724c0.525,-0.525 1.025,-0.85 1.724,-1.122c0.529,-0.205 1.323,-0.45 2.785,-0.516c1.581,-0.072 2.055,-0.088 6.059,-0.088Z" style="fill:#030404;fill-rule:nonzero;"/><path d="M14.995,20.003c-2.76,0 -4.998,-2.238 -4.998,-4.998c0,-2.761 2.238,-4.999 4.998,-4.999c2.761,0 4.999,2.238 4.999,4.999c0,2.76 -2.238,4.998 -4.999,4.998Zm0,-12.699c-4.253,0 -7.7,3.448 -7.7,7.701c0,4.253 3.447,7.7 7.7,7.7c4.253,0 7.701,-3.447 7.701,-7.7c0,-4.253 -3.448,-7.701 -7.701,-7.701Z" style="fill:#030404;fill-rule:nonzero;"/><path d="M24.799,7c0,0.994 -0.805,1.8 -1.799,1.8c-0.994,0 -1.8,-0.806 -1.8,-1.8c0,-0.994 0.806,-1.799 1.8,-1.799c0.994,0 1.799,0.805 1.799,1.799Z" style="fill:#030404;fill-rule:nonzero;"/></g></svg>