<svg xmlns="http://www.w3.org/2000/svg" viewBox="0 0 48 48" enable-background="new 0 0 48 48"><style type="text/css">.st0{display:none;} .st1{fill:#3AA4C6;} .st2{fill:#FFFFFF;} .st3{fill:#DB5248;}</style><path class="st1" d="M0 0h48v48h-48z"/><path class="st2" d="M35.8 20.7c0 8.8-9.5 18.5-11.8 18.5s-11.8-9.7-11.8-18.5c0-6.5 5.3-11.8 11.8-11.8s11.8 5.2 11.8 11.8z"/><path class="st3" d="M24 13.5c-.6 0-1.1.1-1.7.2 1 .5 1.6 1.5 1.6 2.6 0 1.6-1.3 2.9-2.9 2.9-1.5 0-2.8-1.2-2.9-2.7-.9 1.2-1.4 2.6-1.4 4.2 0 4 3.2 7.2 7.2 7.2s7.2-3.2 7.2-7.2c.1-3.9-3.1-7.2-7.1-7.2z"/></svg>