<svg xmlns="http://www.w3.org/2000/svg" viewBox="0 0 69.3 73.9" enable-background="new 0 0 69.3 73.9" width="70" height="74"><style type="text/css">.st0{fill:#FFFFFF;}</style><path class="st0" d="M59.8 29.7h-14.1v14.1h14.1v-14.1zm-2.9 11.3h-8.4v-8.4h8.4v8.4zM23.6 29.7h-14.1v14.1h14.1v-14.1zm-2.9 11.3h-8.4v-8.4h8.4v8.4zM51.1 4.6v-4.6h-2.8v4.6h-12.2v-4.6h-2.8v4.6h-12.3v-4.6h-2.8v4.6h-18.2v69.3h69.3v-69.3h-18.2zm15.3 66.5h-63.6v-50.6h63.6v50.6zm0-53.4h-63.6v-10.2h15.3v5.6h2.9v-5.6h12.3v5.6h2.8v-5.6h12.3v5.6h2.8v-5.6h15.3v10.2zM59.8 47.8h-14.1v14.1h14.1v-14.1zm-2.9 11.2h-8.4v-8.4h8.4v8.4zM41.7 47.8h-14.1v14.1h14.1v-14.1zm-2.9 11.2h-8.4v-8.4h8.4v8.4zM41.7 29.7h-14.1v14.1h14.1v-14.1zm-2.9 11.3h-8.4v-8.4h8.4v8.4zM23.6 47.8h-14.1v14.1h14.1v-14.1zm-2.9 11.2h-8.4v-8.4h8.4v8.4z"/></svg>