<svg xmlns="http://www.w3.org/2000/svg" viewBox="0 0 48 48" enable-background="new 0 0 48 48"><style type="text/css">.st0{fill:#55ACEE;} .st1{fill:#FFFFFF;}</style><g id="Layer_286"><path class="st0" d="M0 0h48v48h-48z"/><path class="st1" d="M38.2 12.5c-1.2.7-2.5 1.2-3.9 1.5-1.1-1.2-2.7-1.9-4.5-1.9-3.4 0-6.2 2.7-6.2 6.1 0 .5.1.9.2 1.4-5.1-.3-9.6-2.7-12.7-6.3-.5.9-.8 1.9-.8 3 0 2.1 1.1 4 2.7 5-1 0-2-.3-2.8-.8v.1c0 2.9 2.1 5.4 4.9 5.9-.5.1-1.1.2-1.6.2-.4 0-.8 0-1.2-.1.8 2.4 3.1 4.2 5.8 4.2-2.1 1.6-4.8 2.6-7.6 2.6-.5 0-1 0-1.5-.1 2.7 1.7 6 2.7 9.4 2.7 11.4 0 17.6-9.2 17.6-17.2v-.8c1.2-.9 2.2-1.9 3.1-3.1-1.1.5-2.3.8-3.5 1 1.2-.8 2.1-2 2.6-3.4z"/></g></svg>