<svg xmlns="http://www.w3.org/2000/svg" viewBox="0 0 163.4 157.4" enable-background="new 0 0 163.4 157.4" width="164" height="168"><style type="text/css">.st0{fill:#FFFFFF;}</style><path class="st0" d="M133.1 101.7c-4.6-3-7.7-5.9-9.8-8.6-.1-.3-.3-.5-.5-.7-5-7.1-2.9-12.6-2.7-12.9l.1-.3c5.4-5.2 8.7-11.6 9.9-14.5 3.2-.9 9.7-3.9 12.1-12.8 1.1-4.2.8-7.7-1.1-10.4-1.3-1.9-3.1-2.9-4.5-3.4-.3-1.7-.7-3.3-1.1-4.9 2-1.6 4-3.6 5.8-6 .6-.8.8-1.7.5-2.7-.3-.9-.9-1.6-1.8-2l-6.1-2.3c.4-1.4 1.2-3.8 2.6-7.7.4-1.2 0-2.6-1.1-3.4-1.1-.8-2.5-.8-3.6 0 0 0-3.1 2.2-6.4 2.1.3-1.3.9-3.5 2.2-7.1.4-1.1.2-2.4-.7-3.2-.9-.8-2.1-1.1-3.2-.6-3.8 1.6-11 3.6-14.2 2.1-7.5-3.3-26.7 3.7-34.8 12.7-7.7 8.7-8.7 14.7-9.8 22.9-1.4.5-3.1 1.5-4.4 3.4-1.8 2.7-2.2 6.2-1.1 10.4 2.4 8.9 8.9 11.9 12.1 12.8 1.3 2.9 4.5 9.2 9.9 14.4 0 .2.1.3.2.5.2.4 4.9 11-12.5 22.2-20.4 13.1-30.3 30.3-30.3 52.7 0 1.7 1.3 3 3 3h118.7c1.7 0 3-1.3 3-3-.1-22.4-10-39.6-30.4-52.7zm-56.6-40.7c-.4-1-1.3-1.7-2.4-1.9-.3 0-6.8-1.1-8.9-8.8-.4-1.7-.8-3.9.2-5.4.9-1.3 2.5-1.5 2.5-1.5 1.4-.1 2.5-1.2 2.7-2.6l.2-1.3c1.1-8 1.7-12.9 8.5-20.4 7.4-8.2 24-13 28-11.3 3.8 1.7 9 .9 13-.1-1.4 4.9-.9 6.6-.1 7.6.3.5.8.8 1.3 1 2.6 1 5.1.9 7.3.5-.3 1-.6 1.9-.8 2.6-.5 1.6-1.1 4.1 1.1 5.3.3.2.6.3 1 .3l3.9 1.5c-9.8 9.8-22.5 8.2-33.9 6.8-3-.4-5.8-.7-8.5-.9-4.8-.2-8.6 1.1-11.3 4-4.9 5.1-4.2 13.1-4.1 13.4.2 1.6 1.6 2.9 3.3 2.7 1.6-.2 2.9-1.6 2.7-3.3 0-.1-.4-5.6 2.5-8.7 1.5-1.6 3.7-2.3 6.7-2.1 2.4.1 5.2.5 8 .8 9.1 1.1 20.6 2.6 31-2.7.3 1.4.5 2.8.7 4.2.2 1.4 1.3 2.5 2.7 2.6 0 0 1.6.2 2.5 1.5 1 1.4.7 3.7.2 5.4-2.1 7.7-8.6 8.8-8.9 8.8-1.1.1-2 .9-2.4 1.9-.1.2-7.5 19.2-22.4 20.2-.3-.1-.6-.1-.8 0-.4 0-.7 0-1.1.1-.4 0-.7 0-1.1-.1h-.8c-15-.9-22.4-19.9-22.5-20.1zm40.3 33.2l-15.6 16-15.9-16.2c2.1-3.7 2.8-7.1 2.9-9.8 3.4 1.8 7.3 3 11.7 3h1.6c4.5 0 8.4-1.2 11.9-3.1.2 2.8 1.1 6.3 3.4 10.1zm-8.9 57.2h-63.099999999999994c.8-19 9.6-33.2 27.4-44.7 4.1-2.6 7.2-5.3 9.5-7.8l17.1 17.5c.6.6 1.3.9 2.1.9h.2c.8 0 1.6-.3 2.1-.9l17-17.4c2.3 2.5 5.4 5.2 9.4 7.7 17.8 11.4 26.6 25.7 27.4 44.7h-49.1zM60.5 82.9c0-13.1-10.9-23.9-24-23.9s-23.9 10.8-23.9 23.9c0 5.5 1.8 10.6 5.3 14.9l.2.2-18.1 21.2 6 4.8 17.8-21h.1c3.8 2.5 8.1 3.8 12.6 3.8 13.1.1 24-10.8 24-23.9zm-24 16.9c-2.8 0-5.8-.8-8.3-2.3-2-1.3-3.8-2.8-5.3-4.8-2.3-2.8-3.3-6.3-3.3-9.8 0-9.3 7.6-16.9 16.9-16.9s16.9 7.6 16.9 16.9c0 9.4-7.5 16.9-16.9 16.9z"/></svg>