<svg xmlns="http://www.w3.org/2000/svg" viewBox="0 0 28.3 28.1" enable-background="new 0 0 28.3 28.1" width="16" height="16"><style type="text/css">.st0{fill:#FFFFFF;}</style><path class="st0" d="M21.3 14.5h-6.6v5.8c2 0 3.9.3 5.7.7.5-1.9.9-4.1.9-6.5zM20.4 7c-1.7.4-3.7.7-5.7.7v5.8h6.6c0-2.3-.4-4.5-.9-6.5zM6 14.5h-6c.1 3.2 1.3 6 3.1 8.3 1.1-.6 2.4-1.2 3.9-1.6-.6-1.9-1-4.2-1-6.7zM7 6.8c-1.5-.4-2.8-1-3.9-1.6-1.8 2.3-3 5.2-3.1 8.3h6c0-2.4.4-4.7 1-6.7zM22.3 13.5h6c-.1-3.2-1.3-6-3.1-8.3-1.1.6-2.4 1.2-3.9 1.6.6 2 1 4.3 1 6.7zM19.1 4c-1.2-2.2-2.7-3.7-4.5-4v6.7c1.9 0 3.7-.3 5.4-.7-.2-.7-.5-1.4-.9-2zM20 3.5c.4.7.7 1.5 1 2.3 1.3-.4 2.5-.9 3.5-1.4-1.9-2-4.3-3.4-7-4.1 1 .7 1.8 1.8 2.5 3.2zM8.3 3.5c.7-1.4 1.5-2.5 2.5-3.2-2.7.7-5.1 2.1-7 4.1 1 .6 2.2 1.1 3.5 1.4.3-.8.6-1.6 1-2.3zM8.3 24.6c-.4-.7-.7-1.5-1-2.3-1.3.4-2.5.9-3.5 1.4 1.9 2 4.3 3.4 7 4.1-1-.8-1.8-1.9-2.5-3.2zM20 22c-1.6-.4-3.5-.6-5.4-.7v6.7c1.7-.2 3.3-1.7 4.5-4 .4-.5.7-1.3.9-2zM9.2 4c-.3.6-.6 1.3-.9 2.1 1.6.4 3.5.6 5.4.7v-6.8c-1.8.2-3.3 1.7-4.5 4zM21.3 21.3c1.5.4 2.8 1 3.9 1.6 1.8-2.3 3-5.2 3.1-8.3h-6c0 2.4-.4 4.7-1 6.7zM20 24.6c-.7 1.3-1.5 2.4-2.5 3.2 2.7-.7 5.1-2.1 7-4.1-1-.6-2.2-1-3.5-1.4-.3.8-.6 1.6-1 2.3zM9.2 24.1c1.2 2.2 2.7 3.7 4.5 4v-6.7c-1.9 0-3.7.3-5.4.7l.9 2zM8 21c1.7-.4 3.7-.7 5.7-.7v-5.8h-6.7c.1 2.4.4 4.6 1 6.5zM7 13.5h6.6v-5.8c-2 0-3.9-.3-5.7-.7-.5 2-.8 4.2-.9 6.5z"/></svg>