<svg xmlns="http://www.w3.org/2000/svg" viewBox="0 0 48 48" enable-background="new 0 0 48 48"><style type="text/css">.st0{fill:#CD201F;} .st1{fill:#FFFFFF;}</style><g id="Layer_257"><path class="st0" d="M0 0h48v48h-48z"/><path class="st1" d="M38.7 17.8s-.3-2.2-1.2-3.1c-1.1-1.2-2.4-1.3-3-1.3-4.2-.4-10.5-.4-10.5-.4s-6.3 0-10.5.3c-.6.1-1.9.1-3 1.3-.9.9-1.2 3.1-1.2 3.1s-.3 2.6-.3 5.1v2.4c0 2.5.3 5.1.3 5.1s.3 2.2 1.2 3.1c1.1 1.2 2.6 1.2 3.3 1.3 2.4.3 10.2.3 10.2.3s6.3 0 10.5-.3c.6-.1 1.9-.1 3-1.3.9-.9 1.2-3.1 1.2-3.1s.3-2.5.3-5.1v-2.4c0-2.5-.3-5-.3-5zm-17.8 10.3v-8.8l8.1 4.4-8.1 4.4z" id="Lozenge_35_"/></g></svg>