<?xml version="1.0" encoding="utf-8"?>
<!-- Generator: Adobe Illustrator 19.1.0, SVG Export Plug-In . SVG Version: 6.00 Build 0)  -->
<!DOCTYPE svg PUBLIC "-//W3C//DTD SVG 1.1//EN" "http://www.w3.org/Graphics/SVG/1.1/DTD/svg11.dtd">
<svg version="1.1" id="Layer_1" xmlns="http://www.w3.org/2000/svg" xmlns:xlink="http://www.w3.org/1999/xlink" x="0px" y="0px"
	 width="42px" height="48px" viewBox="0 0 42 48" style="enable-background:new 0 0 42 48;" xml:space="preserve">
<g id="g1941">
	<path id="path1943" d="M13.7,0C11.5,0.3,3.2,4,3,23.4C2.8,43.7,11.5,48,13.7,48V34.5c-1.9,0-2.3-2-2.7-6.3c-0.3-2.8-0.4-6.2,0-9.7
		c0.3-2.4,0.7-4.8,2.7-4.8L13.7,0z"/>
	<path id="path1945" d="M18.6,48c0.9,0,1.5-0.7,1.5-1.5l0,0c0,0,0-10.5,0-10.5c0-0.8-0.7-1.5-1.5-1.5h-3.8V48
		C14.8,48,18.6,48,18.6,48L18.6,48z"/>
	<path id="path1947" d="M18.6,13.8c0.9,0,1.5-0.7,1.5-1.5l0,0c0,0,0-10.8,0-10.8c0-0.8-0.7-1.5-1.5-1.5h-3.8v13.8
		C14.8,13.8,18.6,13.8,18.6,13.8L18.6,13.8z"/>
</g>
<g>
	<path d="M26.9,14.5l-1.8,1.8c3.9,3.9,3.9,10.4,0,14.3l1.8,1.8C31.9,27.5,31.9,19.4,26.9,14.5z"/>
	<path d="M35,6.5l-1.8,1.8c8.4,8.4,8.4,22,0,30.4l1.8,1.8C44.3,31.1,44.3,15.8,35,6.5z"/>
	<path d="M30.9,10.5l-1.8,1.8c6.2,6.2,6.2,16.2,0,22.4l1.8,1.8C38.1,29.3,38.1,17.6,30.9,10.5z"/>
</g>
</svg>
