<?xml version="1.0" encoding="utf-8"?>
<!-- Generator: Adobe Illustrator 19.1.0, SVG Export Plug-In . SVG Version: 6.00 Build 0)  -->
<!DOCTYPE svg PUBLIC "-//W3C//DTD SVG 1.1//EN" "http://www.w3.org/Graphics/SVG/1.1/DTD/svg11.dtd">
<svg version="1.1" id="Layer_1" xmlns="http://www.w3.org/2000/svg" xmlns:xlink="http://www.w3.org/1999/xlink" x="0px" y="0px"
	 width="56px" height="45px" viewBox="0 0 56 45" style="enable-background:new 0 0 56 45;" xml:space="preserve">
<path d="M4.9,8h46.3C53.3,8,55,6.4,55,4.5S53.3,1,51.1,1H4.9C2.7,1,1,2.6,1,4.5S2.7,8,4.9,8z M51.1,19H4.9C2.7,19,1,20.6,1,22.5
	S2.7,26,4.9,26h46.3c2.1,0,3.9-1.6,3.9-3.5S53.3,19,51.1,19z M51.1,37H4.9C2.7,37,1,38.6,1,40.5S2.7,44,4.9,44h46.3
	c2.1,0,3.9-1.6,3.9-3.5S53.3,37,51.1,37z"/>
</svg>
