<?xml version="1.0" encoding="utf-8"?>
<!-- Generator: Adobe Illustrator 19.1.0, SVG Export Plug-In . SVG Version: 6.00 Build 0)  -->
<!DOCTYPE svg PUBLIC "-//W3C//DTD SVG 1.1//EN" "http://www.w3.org/Graphics/SVG/1.1/DTD/svg11.dtd">
<svg version="1.1" id="Layer_1" xmlns="http://www.w3.org/2000/svg" xmlns:xlink="http://www.w3.org/1999/xlink" x="0px" y="0px"
	 width="24px" height="26px" viewBox="0 0 24 26" style="enable-background:new 0 0 24 26;" xml:space="preserve">
<style type="text/css">
	.st0{fill:none;}
	.st1{fill:#231F20;}
</style>
<g>
	<g>
		<path class="st0" d="M14.5,2.4c4,0,7.2,3.2,7.2,7.2c0,4-3.2,7.2-7.2,7.2c-1.3,0-2.5-0.4-3.6-1l4.3-5l-2.3-2l-4.2,5
			c-0.9-1.2-1.4-2.6-1.4-4.2C7.3,5.6,10.5,2.4,14.5,2.4z"/>
	</g>
	<g>
		<path class="st1" d="M0,24l7.5-8.8c0.6,0.8,1.4,1.5,2.3,2l-7.4,8.7L0,24z"/>
	</g>
	<g>
		<path class="st1" d="M5.5,9.6c0,2.1,0.7,4.1,2,5.6c0.6,0.8,1.4,1.5,2.3,2c1.4,0.9,3,1.4,4.8,1.4c5,0,9-4,9-9c0-5-4-9-9-9
			S5.5,4.6,5.5,9.6z M7.3,9.6c0-4,3.2-7.2,7.2-7.2c4,0,7.2,3.2,7.2,7.2c0,4-3.2,7.2-7.2,7.2c-1.3,0-2.5-0.4-3.6-1
			c-0.9-0.5-1.6-1.2-2.2-2C7.8,12.6,7.3,11.1,7.3,9.6z"/>
		<path class="st1" d="M9.5,17.6c-0.9-0.6-1.7-1.3-2.4-2.1C5.7,13.8,5,11.8,5,9.6c0-5.2,4.3-9.5,9.5-9.5c5.2,0,9.5,4.3,9.5,9.5
			c0,5.2-4.3,9.5-9.5,9.5C12.7,19.1,11,18.6,9.5,17.6z M6,9.6c0,2,0.6,3.8,1.9,5.3c0.6,0.7,1.3,1.4,2.1,1.9c1.4,0.9,2.9,1.3,4.5,1.3
			c4.7,0,8.5-3.8,8.5-8.5C23,4.9,19.2,1,14.5,1C9.8,1,6,4.9,6,9.6z M10.7,16.2c-0.9-0.5-1.7-1.3-2.4-2.2l0,0c-1-1.3-1.5-2.9-1.5-4.5
			c0-4.2,3.5-7.7,7.7-7.7c4.2,0,7.7,3.5,7.7,7.7c0,4.2-3.5,7.7-7.7,7.7C13.2,17.3,11.8,16.9,10.7,16.2z M7.8,9.6
			c0,1.4,0.4,2.8,1.3,3.9l0,0c0.6,0.8,1.3,1.4,2.1,1.9c1,0.6,2.2,0.9,3.3,0.9c3.7,0,6.7-3,6.7-6.7c0-3.7-3-6.7-6.7-6.7
			S7.8,5.9,7.8,9.6z"/>
	</g>
</g>
</svg>
