<svg xmlns="http://www.w3.org/2000/svg" viewBox="0 0 125 30" enable-background="new 0 0 125 30"><style type="text/css">.st0{fill:#383838;}</style><path class="st0" d="M61.6 24.2c0 1.8-.7 3.2-2 4.3-1.3 1-3.1 1.5-5.4 1.5s-4.2-.4-5.7-1.1v-3.2c.9.4 1.9.8 3 1 1 .3 2 .4 2.9.4 1.3 0 2.3-.3 2.9-.8.6-.5.9-1.2.9-2s-.3-1.4-.9-1.9-1.8-1.2-3.6-1.9c-1.7-.7-3-1.5-3.8-2.5s-1.1-2.1-1.1-3.5c0-1.7.6-3 1.8-4s2.8-1.5 4.9-1.5c2 0 3.9.4 5.8 1.3l-1.1 2.7c-1.8-.8-3.4-1.1-4.9-1.1-1.1 0-1.9.2-2.5.7s-.8 1.1-.8 1.9c0 .5.1 1 .3 1.4s.6.7 1.1 1.1c.5.3 1.4.8 2.8 1.3 1.5.6 2.6 1.2 3.3 1.7s1.2 1.1 1.5 1.8c.4.7.6 1.5.6 2.4zM78.8 29.7h-3.3v-9.5c0-1.2-.2-2.1-.7-2.7s-1.2-.9-2.3-.9c-1.4 0-2.4.4-3 1.2-.6.8-1 2.2-1 4.1v7.7h-3.3v-21.6h3.3v5.5c0 .9-.1 1.8-.2 2.8h.2c.4-.7 1.1-1.3 1.9-1.7s1.7-.6 2.8-.6c3.7 0 5.6 1.9 5.6 5.7v10zM93 29.7l-.7-2.1h-.1c-.7.9-1.5 1.6-2.2 1.9s-1.7.5-2.9.5c-1.5 0-2.7-.4-3.6-1.2s-1.3-2-1.3-3.5c0-1.6.6-2.8 1.8-3.6 1.2-.8 3-1.3 5.4-1.3l2.7-.1v-.8c0-1-.2-1.7-.7-2.2s-1.2-.7-2.1-.7c-.8 0-1.5.1-2.3.3s-1.4.5-2.1.8l-1.1-2.3c.8-.4 1.8-.8 2.8-1s1.9-.3 2.8-.3c2 0 3.4.4 4.4 1.3s1.5 2.2 1.5 4v10.4l-2.3-.1zm-4.9-2.2c1.2 0 2.1-.3 2.9-1 .7-.7 1.1-1.6 1.1-2.8v-1.3l-2 .1c-1.5.1-2.7.3-3.4.8-.7.5-1.1 1.2-1.1 2.1 0 .7.2 1.2.6 1.6s1.1.5 1.9.5zM107.8 14c.7 0 1.2 0 1.6.1l-.3 3.1c-.5-.1-.9-.2-1.5-.2-1.3 0-2.4.4-3.2 1.3-.8.9-1.2 2-1.2 3.3v8.1h-3.3v-15.4h2.6l.4 2.7h.2c.5-.9 1.2-1.7 2-2.2s1.7-.8 2.7-.8zM119 30c-2.4 0-4.3-.7-5.6-2.1-1.4-1.4-2-3.3-2-5.8s.6-4.5 1.9-5.9 3-2.2 5.2-2.2c2 0 3.6.6 4.8 1.9 1.2 1.2 1.8 2.9 1.8 5.1v1.8h-10.3c0 1.5.5 2.6 1.2 3.5.8.8 1.8 1.2 3.2 1.2.9 0 1.8-.1 2.5-.3.8-.2 1.6-.5 2.5-.9v2.7c-.8.4-1.6.7-2.4.8-.8.1-1.8.2-2.8.2zm-.6-13.5c-1 0-1.9.3-2.5 1s-1 1.6-1.1 2.9h7c0-1.3-.3-2.2-.9-2.9-.6-.7-1.5-1-2.5-1zM30.4 25h-25.4v-15.2h3.9l7.6-5h-16.5v25.2h35.4v-11.6l-5 3.1zM25.4 0v7.2c-2.7.3-9 1.5-13.5 6.3-1.5 1.6-2.8 3.6-3.7 6.1 0 0 1.6-2.7 6-4.8 2.6-1.2 6.3-2.2 11.3-2.2v6.9l13.3-9 1.2-.8-1.2-.7-13.4-9z"/></svg>