<?xml version="1.0" encoding="utf-8"?>
<!-- Generator: Adobe Illustrator 19.1.0, SVG Export Plug-In . SVG Version: 6.00 Build 0)  -->
<!DOCTYPE svg PUBLIC "-//W3C//DTD SVG 1.1//EN" "http://www.w3.org/Graphics/SVG/1.1/DTD/svg11.dtd">
<svg version="1.1" id="Layer_1" xmlns="http://www.w3.org/2000/svg" xmlns:xlink="http://www.w3.org/1999/xlink" x="0px" y="0px"
	 width="56px" height="45px" viewBox="7 2 56 45" style="enable-background:new 7 2 56 45;" xml:space="preserve">
<style type="text/css">
	.st0{fill:#0D47A1;}
</style>
<path class="st0" d="M11.9,10h46.3c2.1,0,3.8-1.6,3.8-3.5S60.3,3,58.1,3H11.9C9.7,3,8,4.6,8,6.5S9.7,10,11.9,10z M58.1,21H11.9
	C9.7,21,8,22.6,8,24.5S9.7,28,11.9,28h46.3c2.1,0,3.9-1.6,3.9-3.5S60.3,21,58.1,21z M58.1,39H11.9C9.7,39,8,40.6,8,42.5
	S9.7,46,11.9,46h46.3c2.1,0,3.9-1.6,3.9-3.5S60.3,39,58.1,39z"/>
</svg>
